<?xml version="1.0" standalone="no"?>
<!DOCTYPE svg PUBLIC "-//W3C//DTD SVG 1.1//EN" "http://www.w3.org/Graphics/SVG/1.1/DTD/svg11.dtd" >
<svg xmlns="http://www.w3.org/2000/svg" xmlns:xlink="http://www.w3.org/1999/xlink" version="1.1" viewBox="-10 0 266 256">
   <path fill="currentColor"
d="M164 4q9 2 12 4h2q3 3 3 5q-8 3 -21 4q-8 1 -16 7q-13 6 -22 16q4 3 9 4q6 3 3 6q-4 2 -4 11q21 -6 37 -9q2 -3 5 -3q0 1 2 1q2 2 5 1l6 4q-1 4 -5 5q-5 -1 -7 0q-24 16 -46 26v12q21 -3 53 -7q7 0 9 -1q9 -11 13 -6q4 4 12 8q4 3 7 4q5 4 8 8q-1 3 -5 4q-3 0 -12 -7
q-10 -11 -29 -7q-19 0 -56 8q-1 78 1 97q-1 5 6 16q6 10 7 15q0 1 -1 2q-6 3 -7 1q-2 -2 -4 -6q-7 -18 -15 -22q-5 -1 -1 -4q0 -4 6 0q4 2 4 -3v-48v-48q-43 8 -60 16q-28 13 -57 8q-4 0 1 -2q33 -4 66 -15q15 -5 50 -24v-17q-26 12 -38 23q-1 1 -2 1q-1 1 -2 0q-6 -3 -5 -6
q0 -2 2 -4q32 -39 54 -58q-36 9 -48 3q-3 -1 0 -2q47 -4 68 -13q8 -12 12 -8zM123 64v-13q0 -7 -3 -9v-1q-16 15 -39 39q-2 2 -2 3q1 1 3 0q6 -3 11 -5q16 -7 24 -11zM129 66q0 3 -1 8v8q29 -15 38 -27q1 -1 -1 -1q-18 3 -36 12zM84 108q15 -3 39 -9v-11q-18 10 -39 20z" />
</svg>
