<?xml version="1.0" standalone="no"?>
<!DOCTYPE svg PUBLIC "-//W3C//DTD SVG 1.1//EN" "http://www.w3.org/Graphics/SVG/1.1/DTD/svg11.dtd" >
<svg xmlns="http://www.w3.org/2000/svg" xmlns:xlink="http://www.w3.org/1999/xlink" version="1.1" viewBox="-10 0 272 256">
   <path fill="currentColor"
d="M136 -8q9 8 8 11q-3 16 -2 30q2 -1 5 -2q3 0 6 -2q2 0 4 -2q-1 -2 6 -2q8 2 12 4q1 2 1 3t-2 1q-17 2 -32 11q0 4 -1 11v7q18 -4 33 -5q12 -3 24 19q3 8 -1 8q-5 2 -8 7q-8 15 -26 23q-14 7 -22 -1q0 1 -1 4q-1 4 0 4q10 19 45 47q7 7 16 6q27 2 48 13q3 2 3 3t-3 1
q-12 -2 -24 -3t-21 -2q-14 0 -20 -8q-32 -30 -44 -47q-1 70 4 96q-2 6 -7 3q-10 -18 -13 -28q-1 -3 0 -3t4 2q7 9 9 3q0 -6 -1 -26q-1 -23 -1 -50q-37 54 -70 55q-3 1 -3 0q0 -2 3 -3q36 -10 67 -60l-6 -8q-2 1 -15 6q-7 3 -4 -8q-13 -4 -9 -12q3 -2 0 -5q-12 -14 3 -25
q4 -2 2 2q-7 9 -5 9q2 2 2 5q-1 4 4 8q5 0 31 -10v-13q-5 2 -12 5q-14 5 -20 5q-5 0 -1 -2q12 -6 33 -14v-16q-16 11 -18 12q-5 2 -1 -2q1 -1 8 -7q8 -6 11 -9v-1q-22 8 -42 4q-4 -1 1 -2q18 0 41 -8q0 -22 -1 -27v-13q-2 -5 2 -2zM141 67v12q5 -2 10 -2q2 0 2 2q-1 3 -3 4
q-6 2 -9 5v12q11 -4 20 -5q3 4 -2 6q-8 2 -18 5q4 8 17 1q14 -6 25 -36q2 -9 -6 -11q-18 2 -36 7zM134 88q-3 1 -7 2q-18 6 -23 3q6 12 16 14q1 -1 15 -6v-9q-4 3 -5 2q0 -1 4 -6zM135 108q-2 2 -3 1q0 1 1 2q1 2 2 2v-5zM70 32q1 2 4 3q2 2 4 3q3 5 -1 7q-7 3 -10 9
q-4 10 0 19q6 12 10 22q0 3 -1 5q-2 1 -4 -1q-9 -7 -22 -13q-10 61 -5 105q2 14 15 25q3 3 0 7q-10 3 -16 -11q-2 -3 -2 -2l-10 -10q-6 -3 -2 -9q4 -4 8 -1q2 2 2 -2q-1 -32 -1 -54q1 -24 5 -51q1 -4 -2 -6q-3 -4 0 -8q5 -2 6 -1q10 7 6 9q-3 2 -4 7q1 1 5 1q7 0 9 -1
q2 0 2 -1q1 -1 0 -3q-7 -10 -6 -33q-19 14 -30 4q-2 -1 -2 -2t3 -1q11 3 25 -6q5 -3 6 -8q1 -6 8 -2z" />
</svg>
