<?xml version="1.0" standalone="no"?>
<!DOCTYPE svg PUBLIC "-//W3C//DTD SVG 1.1//EN" "http://www.w3.org/Graphics/SVG/1.1/DTD/svg11.dtd" >
<svg xmlns="http://www.w3.org/2000/svg" xmlns:xlink="http://www.w3.org/1999/xlink" version="1.1" viewBox="-10 0 273 256">
   <path fill="currentColor"
d="M173 9q-35 2 -85 18q-6 3 -17 -2q-5 -2 0 -2q7 3 25 -3q43 -10 77 -14q5 -2 18 13q2 3 1 5q-1 1 -3 0q-9 -1 -14 9q-14 20 -14 76q8 84 70 106q4 1 6 0q1 0 1 -3q-1 -3 -1 -8q-1 -2 -3 -19q-1 -7 2 -1q7 21 17 40v2h-3q-8 -4 -19 -5q-69 -27 -74 -121q-1 -53 19 -86
q2 -3 -3 -5zM59 35q-1 3 -3 12q-3 5 -2 11q0 4 4 1q3 -1 7 0q9 5 12 6q1 2 1 3t-1 1q-7 2 -6 17q6 105 -53 121q-4 1 -4 0q-1 -2 3 -3q33 -10 43 -49q8 -33 8 -85q-2 -6 -5 -6q-7 2 -12 7q-2 3 -3 3q-2 0 -3 -4q-9 -4 12 -36q3 -7 2 1zM139 92q1 -3 0 -3q0 -1 -3 0
q-8 3 -21 9q1 12 2 19q16 -10 22 -25zM108 101q-2 1 -7 3q-11 4 -14 4q2 6 5 10l6 12q5 -2 12 -7q-1 -12 -2 -22zM117 126q-1 10 -6 28v4q10 -3 20 -10q-7 -12 -14 -22zM110 129q-2 2 -5 3q-4 1 -5 2v6l1 2q-1 5 -5 3q-1 0 -1 -1q0 -2 -4 -8q-2 -1 -1 -4l1 -1
q-9 -17 -14 -33q-1 -4 1 -2l6 9q1 0 4 -1q14 -6 18 -8q-4 -11 -8 -18q-2 -2 -1 -2t4 2q7 6 13 14q6 -1 13 -5q9 -3 10 -6q2 -4 11 4q8 8 3 10q-5 0 -7 4q-8 10 -13 15q6 1 9 2q2 3 -2 6q-9 0 -19 3q27 29 36 44q2 7 -1 8q-12 -2 -13 -11q-2 -3 -4 -7q-2 -3 -3 -7
q-30 17 -52 23q-9 2 -3 -11q1 -3 5 0t22 -4q2 -20 4 -31zM123 46q2 -3 7 0q3 3 9 5q2 1 4 1q1 0 1 4q0 2 -3 1q-9 0 -18 4q-25 12 -44 17q-3 0 -1 -3q25 -10 39 -20q6 -4 4 -6q-2 0 2 -3z" />
</svg>
