<?xml version="1.0" encoding="utf-8"?>
<!-- Generator: Adobe Illustrator 16.0.0, SVG Export Plug-In . SVG Version: 6.00 Build 0)  -->
<!DOCTYPE svg PUBLIC "-//W3C//DTD SVG 1.1//EN" "http://www.w3.org/Graphics/SVG/1.1/DTD/svg11.dtd">
<svg version="1.1" id="Layer_1" xmlns="http://www.w3.org/2000/svg" xmlns:xlink="http://www.w3.org/1999/xlink" x="0px" y="0px"
	 width="330.869px" height="448.375px" viewBox="0 0 330.869 448.375" enable-background="new 0 0 330.869 448.375"
	 xml:space="preserve">
<g>
	<rect fill-rule="evenodd" clip-rule="evenodd" fill="#BFBFBF" width="330.869" height="414.622"/>
	
		<polygon fill-rule="evenodd" clip-rule="evenodd" stroke="#000000" stroke-width="0" stroke-linecap="square" stroke-miterlimit="10" points="
		161.47,125.941 159.249,124.989 157.346,125.624 155.76,126.893 155.125,128.796 155.442,131.651 156.711,135.141 157.98,137.996 
		158.614,140.533 158.297,142.12 158.297,144.023 157.663,148.464 157.346,153.223 157.663,155.126 157.98,156.395 159.566,158.616 
		161.47,160.202 163.056,161.153 163.69,161.471 163.69,162.423 163.373,164.326 163.373,180.188 164.007,184.312 164.642,187.801 
		166.862,193.829 169.717,198.904 170.669,201.125 171.62,202.711 172.256,203.98 172.573,204.297 172.256,217.938 172.256,218.255 
		171.62,218.891 171.303,220.477 170.669,223.331 169.083,230.627 167.814,233.8 166.229,235.703 165.276,236.338 163.056,236.972 
		160.201,238.241 156.394,239.828 152.27,241.414 147.511,243.316 137.677,247.124 127.526,250.931 123.085,252.833 118.961,254.42 
		115.471,255.689 112.934,256.641 111.348,257.275 110.713,257.592 110.713,256.958 111.348,254.737 112.616,251.882 
		114.837,248.71 117.057,245.22 118.327,241.73 118.961,238.558 118.327,235.069 117.692,231.262 117.375,226.504 117.057,222.063 
		116.106,218.572 114.837,216.035 112.934,214.132 110.713,213.18 108.175,212.545 104.051,210.642 102.147,209.373 
		100.562,208.421 97.39,206.835 96.12,206.835 94.534,207.47 93.9,205.883 92.631,204.615 90.093,202.394 86.921,201.442 
		84.383,201.125 81.21,201.442 79.942,201.759 79.625,201.759 79.625,200.491 79.308,197.001 78.99,192.876 78.356,189.388 
		78.038,187.801 78.038,185.581 78.99,180.822 79.625,177.967 79.942,175.747 80.576,171.306 80.259,168.45 79.942,166.547 
		79.625,164.961 79.942,163.375 80.259,162.105 80.894,160.519 82.163,156.078 82.48,151.002 82.163,148.782 81.21,146.561 
		79.942,144.975 78.99,144.023 77.722,143.706 77.087,143.706 75.501,144.975 74.549,146.561 73.915,147.83 72.963,149.416 
		70.425,153.857 68.205,157.981 67.252,159.567 66.935,160.836 66.618,162.105 66.301,164.009 65.032,168.768 63.128,174.478 
		60.908,179.553 59.956,182.091 59.639,184.946 59.639,191.291 59.956,194.146 59.956,197.001 60.273,199.539 59.956,201.125 
		58.688,205.883 58.053,207.47 57.736,208.104 57.419,208.104 56.467,208.421 53.612,209.69 50.123,211.276 47.584,212.862 
		46.315,214.766 45.364,217.304 44.095,219.525 42.509,221.745 40.923,223.648 39.653,225.234 39.337,227.139 39.337,229.358 
		38.702,232.213 38.067,234.117 37.433,235.703 36.481,239.828 36.481,241.73 37.116,243.951 38.385,246.807 39.653,250.931 
		42.509,260.764 44.095,266.157 45.364,270.916 45.998,274.724 46.633,277.578 46.315,281.384 45.046,284.557 43.46,286.777 
		43.144,287.413 42.826,287.729 35.847,296.295 31.088,296.612 0.318,335.948 0.318,413.988 330.235,413.671 330.869,264.571 
		330.553,264.254 329.601,263.937 328.014,262.985 325.794,262.034 320.4,259.178 314.057,256.006 300.099,249.027 294.071,246.173 
		291.532,245.22 289.313,244.269 285.505,242.365 281.382,239.511 273.769,232.849 270.278,229.676 267.424,226.504 
		265.203,224.282 263.934,223.014 263.616,221.745 263.301,219.525 263.301,216.669 263.616,213.497 264.252,206.518 
		264.569,203.346 265.203,200.808 265.838,198.27 266.789,195.098 268.692,188.436 269.644,185.263 270.596,182.726 
		271.231,180.822 271.865,180.188 272.816,180.822 274.403,181.457 276.623,181.457 278.209,180.822 279.796,179.553 
		283.603,176.064 287.409,172.257 289.947,168.133 290.898,165.912 291.216,163.691 291.532,160.202 291.85,157.03 293.754,151.954 
		295.34,148.464 295.657,146.878 295.657,145.927 293.754,143.706 290.898,142.437 288.361,141.803 287.409,141.803 
		287.727,141.485 288.044,140.851 289.313,137.996 290.898,134.506 291.532,130.7 291.85,128.479 291.85,118.645 291.532,111.348 
		291.532,108.176 291.85,105.321 292.168,102.465 292.168,98.977 291.85,91.045 290.581,83.115 289.63,79.625 288.361,77.087 
		286.775,74.55 284.872,71.06 279.796,63.446 275.354,56.467 273.451,53.93 272.183,52.343 270.914,51.074 269.327,49.805 
		264.887,46.633 259.493,43.777 254.734,41.557 252.197,40.605 249.025,39.654 241.411,36.798 232.846,34.896 228.087,34.261 
		223.646,34.578 218.57,35.212 213.178,36.164 201.123,39.019 195.73,40.923 190.654,43.777 186.214,46.95 183.358,51.074 
		178.6,59.322 173.842,66.619 170.352,72.963 168.766,75.818 168.132,78.673 167.18,82.163 166.229,86.604 164.959,91.68 
		163.69,97.39 162.421,102.465 161.47,107.224 160.835,111.348 160.518,113.886 161.47,125.941 	"/>
	
		<polygon fill-rule="evenodd" clip-rule="evenodd" fill="#404040" stroke="#000000" stroke-width="0" stroke-linecap="square" stroke-miterlimit="10" points="
		169.717,235.703 110.078,260.131 110.078,260.764 109.444,262.034 108.81,263.62 107.858,265.84 106.271,268.379 104.369,270.916 
		102.147,273.771 99.293,276.31 93.9,281.384 89.776,286.46 87.238,290.585 85.969,294.073 85.335,296.295 84.383,299.467 
		81.845,307.397 79.625,315.328 78.673,318.501 78.038,320.722 77.404,323.895 77.722,326.749 77.722,328.969 78.038,329.604 
		70.107,344.831 69.473,345.466 67.252,347.687 64.398,350.225 60.908,353.396 57.102,355.934 53.295,358.155 49.805,358.79 
		48.219,358.473 46.95,357.838 44.412,354.982 41.875,350.859 36.481,340.707 34.261,335.948 32.358,331.508 31.088,328.652 
		30.771,328.018 30.771,327.7 34.578,297.563 32.04,298.516 0,340.072 0,414.306 330.553,413.671 330.553,267.108 329.918,266.793 
		328.649,266.157 326.11,265.206 323.256,263.62 319.449,262.034 315.643,260.131 297.877,251.882 293.754,249.979 290.264,248.075 
		287.092,246.488 284.554,245.537 282.65,244.586 282.017,244.269 281.382,243.951 280.747,243.316 278.209,240.779 
		275.037,237.289 271.547,233.166 268.059,229.358 265.203,225.868 262.982,223.648 262.665,223.014 262.348,222.697 
		262.03,223.331 260.762,224.917 258.858,227.772 256.639,231.262 253.466,235.069 249.343,239.192 244.9,243.634 240.142,247.759 
		234.432,251.882 228.404,255.055 221.742,257.909 214.447,259.813 207.149,260.448 198.902,259.813 190.654,257.909 
		186.214,256.323 181.772,254.104 169.717,235.703 	"/>
	
		<polygon fill-rule="evenodd" clip-rule="evenodd" fill="#E0E0E0" stroke="#000000" stroke-width="0" stroke-linecap="square" stroke-miterlimit="10" points="
		176.062,104.687 176.696,105.003 177.331,105.003 178.282,104.687 178.6,104.369 179.233,104.052 180.82,104.052 182.724,103.735 
		184.627,104.369 186.214,105.003 188.751,105.321 195.096,106.273 201.44,107.542 203.661,108.176 204.93,108.81 206.516,110.714 
		207.467,112.934 207.785,115.155 207.149,116.741 206.516,118.01 206.198,119.597 205.564,123.721 203.979,128.162 
		201.758,132.603 199.854,134.824 197.95,135.775 196.682,136.41 196.364,136.41 196.364,137.679 195.73,138.63 194.145,139.582 
		189.386,140.533 185.578,140.533 182.724,139.582 182.09,139.265 181.772,139.265 183.358,139.265 186.531,139.582 
		190.021,139.265 190.972,138.947 191.605,138.313 191.923,137.044 191.923,136.727 188.117,136.727 187.165,136.727 
		187.165,136.41 188.117,136.092 189.703,135.458 192.876,132.92 193.827,131.334 194.145,128.796 192.24,129.43 190.337,129.43 
		188.751,128.796 188.117,128.479 188.434,128.479 189.703,128.162 190.654,127.527 190.972,126.893 190.972,125.624 
		191.605,125.307 193.51,124.355 194.462,124.038 195.73,124.672 196.364,125.307 196.999,125.624 197.95,125.624 198.585,125.307 
		198.902,124.672 197.634,122.769 195.73,120.865 195.096,120.231 194.778,119.913 194.462,120.548 193.51,122.134 191.923,123.721 
		190.654,124.038 189.386,124.038 186.849,123.085 185.261,121.817 184.627,120.865 184.31,120.231 181.455,121.817 
		181.772,122.451 182.724,124.038 183.992,125.307 185.261,125.941 185.578,125.941 185.578,126.258 184.31,126.575 
		182.406,126.258 181.138,124.989 178.6,123.085 177.647,122.451 177.965,121.5 181.138,118.962 183.041,118.01 184.627,117.693 
		186.849,117.376 190.021,117.059 192.559,116.424 193.51,116.106 193.827,116.106 193.51,115.472 192.559,114.521 190.972,113.252 
		188.434,112.617 182.09,113.252 179.551,113.568 177.647,113.568 176.062,114.204 174.793,115.155 172.889,117.693 
		172.573,118.327 172.256,119.597 172.256,123.085 173.524,127.21 175.428,131.017 174.476,130.065 173.524,128.796 
		171.938,124.672 170.986,119.913 170.669,115.79 170.669,112.934 170.352,111.348 171.303,110.714 172.256,110.396 
		173.842,110.396 175.428,110.08 176.696,109.762 178.6,108.81 179.869,108.493 181.455,107.859 184.31,107.542 188.117,107.542 
		183.676,107.224 174.159,107.224 172.889,106.907 170.986,106.273 169.4,106.59 167.814,107.224 166.862,107.542 166.862,107.859 
		167.18,109.127 167.814,110.396 168.132,111.666 168.132,115.155 168.448,118.01 168.766,121.817 169.4,125.307 170.669,128.796 
		172.256,131.651 174.476,133.872 172.256,133.554 170.986,132.92 170.352,132.286 169.4,131.334 169.083,131.334 168.766,131.968 
		168.448,135.458 168.132,139.582 167.497,143.071 167.18,144.341 166.862,146.244 166.862,157.03 167.18,161.471 168.132,171.306 
		169.4,181.457 171.62,190.656 172.889,194.78 174.476,197.953 176.062,200.808 177.965,202.711 178.282,202.711 178.282,199.856 
		177.965,196.366 177.647,191.291 177.647,190.339 177.965,190.022 178.282,190.022 178.918,190.656 180.187,192.876 
		181.455,196.049 183.041,199.221 184.627,201.759 185.578,203.346 185.896,203.346 186.214,202.711 186.531,199.539 
		186.214,196.684 186.214,194.463 186.849,193.512 187.8,192.56 189.386,190.974 190.337,188.753 190.654,186.532 190.654,184.629 
		190.654,183.677 190.021,183.36 188.117,182.726 188.434,182.091 191.605,182.091 193.51,181.457 195.096,181.457 198.268,183.995 
		200.489,184.629 200.807,184.629 200.172,184.629 197.634,185.263 196.682,185.897 196.048,186.532 196.682,187.484 
		198.585,188.436 199.854,189.07 201.44,189.388 206.198,190.339 210.957,190.656 213.178,190.656 214.765,190.022 217.619,188.753 
		219.839,187.801 221.109,187.801 221.109,188.753 220.474,189.704 219.522,190.339 216.033,191.925 211.592,192.876 
		207.149,193.194 203.344,193.829 200.172,195.732 198.268,198.587 197.634,201.759 198.268,208.738 199.221,211.276 
		200.489,212.545 202.393,212.545 204.612,211.594 205.881,209.69 206.198,207.152 205.881,206.201 206.198,205.883 
		206.516,206.518 207.149,207.152 208.737,210.008 210.006,213.497 210.957,215.083 212.226,216.353 214.447,217.304 
		216.984,217.938 219.522,217.938 222.378,217.304 225.232,215.718 227.77,213.497 230.942,209.373 233.48,204.615 236.019,200.173 
		238.873,196.684 240.776,195.732 243.314,195.415 249.025,196.366 254.1,197.953 255.688,198.27 256.32,198.587 256.639,198.904 
		256.956,199.856 257.271,201.125 256.639,202.711 255.052,204.932 252.831,208.104 250.611,211.594 249.658,214.766 
		248.707,216.353 246.486,218.572 242.998,221.11 238.556,223.331 232.846,225.234 226.184,226.821 218.888,227.455 210.64,227.139 
		208.103,226.821 206.516,227.139 205.881,227.455 205.881,228.09 206.516,228.725 207.467,229.676 210.64,231.262 214.447,233.166 
		218.57,234.117 221.742,234.435 222.695,234.117 223.329,233.483 223.964,232.213 224.598,231.579 225.232,231.262 225.55,231.897 
		226.184,233.8 225.867,236.972 225.867,238.241 226.184,239.511 227.453,240.462 229.674,240.462 230.309,240.145 232.528,239.192 
		235.383,237.924 239.19,236.338 247.438,231.897 251.245,229.041 254.417,226.504 255.052,225.234 256.003,223.331 258.858,217.62 
		261.079,211.276 261.714,208.738 262.03,206.835 262.03,201.759 262.665,194.463 263.616,186.215 264.569,182.726 265.521,179.871 
		268.059,174.794 271.231,169.402 272.5,166.864 273.769,164.961 274.72,163.691 275.354,163.057 275.672,163.375 275.672,164.326 
		275.354,167.498 274.086,171.622 272.816,175.112 272.183,176.381 272.183,177.333 273.134,179.236 274.72,180.188 276.94,180.188 
		279.16,179.236 281.699,177.015 283.919,174.478 285.823,172.257 287.409,170.354 288.678,168.45 289.63,164.326 290.264,160.202 
		290.581,156.395 291.85,152.588 293.754,149.416 294.389,147.83 294.389,146.561 294.071,145.609 292.803,144.657 289.947,143.706 
		285.823,143.706 284.554,143.071 283.919,143.071 282.65,143.706 280.113,146.561 277.576,150.368 276.623,151.954 
		275.988,153.223 275.354,154.174 274.72,154.492 273.134,153.857 271.547,151.954 271.231,149.099 271.231,147.513 
		270.914,144.341 270.278,139.899 269.644,134.506 268.375,128.162 267.424,121.183 264.569,106.273 261.396,91.68 259.493,84.701 
		257.907,78.673 256.32,73.598 254.734,69.791 253.148,66.936 251.563,65.984 248.707,65.667 246.17,65.35 244.267,64.715 
		242.681,64.081 241.094,63.763 239.19,64.081 234.749,64.715 230.626,64.397 227.136,64.081 223.964,63.446 222.061,62.812 
		219.522,61.86 217.302,60.908 215.398,60.274 212.86,60.274 210.006,60.274 208.42,60.591 206.834,61.225 205.247,61.86 
		203.979,62.177 200.807,61.86 200.172,62.177 199.221,63.446 197.634,65.35 196.048,67.57 191.605,73.598 187.165,80.577 
		182.724,88.19 178.918,95.17 177.647,98.024 176.696,100.879 176.062,103.101 176.062,104.687 	"/>
	
		<polygon fill-rule="evenodd" clip-rule="evenodd" stroke="#000000" stroke-width="0" stroke-linecap="square" stroke-miterlimit="10" points="
		287.409,160.202 287.727,156.395 287.409,153.54 286.458,151.954 284.872,151.637 282.968,152.271 281.382,153.223 
		280.431,154.174 281.064,156.078 283.285,158.616 285.189,161.153 286.458,164.009 286.141,165.277 285.189,166.229 
		283.285,167.498 282.333,167.815 281.699,167.815 280.747,168.768 279.16,169.719 278.209,169.719 277.576,168.768 
		277.892,167.815 278.845,166.864 280.113,166.547 281.064,166.229 281.382,164.961 281.382,163.057 281.064,160.519 
		280.431,157.981 279.479,156.078 279.479,154.174 280.113,152.271 281.699,150.368 283.285,149.416 285.505,148.782 
		288.361,147.513 290.898,146.878 291.85,146.878 292.485,147.195 292.803,148.464 292.485,149.416 291.532,151.637 
		291.216,152.271 290.581,151.954 289.947,151.32 289.63,150.05 289.313,149.416 288.995,149.416 288.995,150.368 289.313,151.637 
		289.63,153.223 289.63,155.444 289.313,157.664 288.361,159.567 287.409,160.202 	"/>
	<polygon fill-rule="evenodd" clip-rule="evenodd" fill="#A1A1A1" points="210.64,227.139 205.247,226.821 200.807,226.186 
		197.316,225.553 194.462,224.917 192.559,224.282 190.972,223.648 190.337,223.014 190.021,223.014 190.021,223.331 
		189.703,224.282 189.386,226.821 189.386,229.993 190.337,232.53 191.605,235.069 192.24,238.558 193.191,242.048 194.778,244.269 
		196.048,245.22 197.95,245.855 203.344,247.441 208.737,247.759 210.957,247.124 212.86,246.173 219.205,240.462 221.742,236.972 
		223.329,233.8 223.329,233.483 223.964,232.53 224.915,229.993 224.915,227.772 224.281,227.139 223.329,227.139 222.061,227.455 
		216.033,227.455 212.226,227.139 210.64,227.139 	"/>
	
		<polygon fill-rule="evenodd" clip-rule="evenodd" stroke="#000000" stroke-width="0" stroke-linecap="square" stroke-miterlimit="10" points="
		214.129,120.865 213.178,121.183 212.226,122.134 210.322,124.989 208.42,129.113 207.149,133.554 205.881,137.679 
		203.979,141.803 202.393,145.609 201.758,146.878 202.075,148.147 203.661,151.32 205.247,152.906 205.247,153.54 204.612,153.54 
		202.709,152.588 200.489,151.637 197.95,151.637 197.316,151.637 196.999,151.32 197.634,150.686 198.902,150.05 199.854,149.416 
		199.854,148.782 199.536,148.464 197.95,148.147 196.048,148.464 194.145,149.416 192.559,150.686 191.923,152.271 
		191.923,154.174 192.876,155.444 194.145,156.395 196.682,156.395 197.634,156.078 197.95,155.761 197.634,155.126 
		196.999,154.174 197.316,153.857 198.268,153.54 200.172,153.857 201.758,154.809 203.661,156.078 205.881,156.712 208.42,156.712 
		210.322,157.03 211.274,157.664 211.274,157.981 210.64,158.616 210.322,159.25 210.006,160.519 210.322,161.471 210.64,162.74 
		210.64,165.277 210.006,166.547 208.737,167.498 207.149,168.133 205.881,168.45 203.979,167.815 202.393,166.547 201.44,165.912 
		199.854,166.229 197.95,166.864 194.145,169.084 190.654,170.988 189.068,171.622 187.8,171.94 186.214,171.94 186.214,171.306 
		186.849,170.67 187.482,169.719 189.386,167.181 191.289,164.009 192.24,161.153 192.559,158.299 191.923,156.712 190.972,155.126 
		190.337,152.588 190.972,149.733 192.876,146.561 194.462,144.975 196.048,143.071 199.536,139.265 203.026,134.506 
		205.881,128.479 206.834,125.624 207.149,123.403 207.149,121.817 207.467,120.865 208.103,119.597 209.054,119.279 
		210.64,118.962 211.909,118.645 212.86,118.962 213.812,119.913 214.129,120.865 	"/>
	
		<polygon fill-rule="evenodd" clip-rule="evenodd" fill="#FFFFFF" stroke="#000000" stroke-width="0" stroke-linecap="square" stroke-miterlimit="10" points="
		208.103,159.25 207.467,161.153 206.834,163.375 205.564,165.595 204.612,165.912 203.026,165.595 202.075,164.961 
		201.758,164.326 203.026,162.74 203.979,162.105 205.247,161.153 206.834,159.567 208.103,159.25 	"/>
	
		<polygon fill-rule="evenodd" clip-rule="evenodd" stroke="#000000" stroke-width="0" stroke-linecap="square" stroke-miterlimit="10" points="
		213.494,158.616 212.86,157.664 212.86,157.03 213.494,156.078 215.08,155.444 217.302,155.444 219.205,156.078 219.839,157.347 
		219.839,157.981 219.205,158.616 217.937,158.933 216.984,158.299 215.716,157.664 214.447,157.981 213.494,158.616 	"/>
	
		<path fill-rule="evenodd" clip-rule="evenodd" fill="#FFFFFF" stroke="#000000" stroke-width="0" stroke-linecap="square" stroke-miterlimit="10" d="
		M186.531,120.231c0-0.882,0.492-1.586,1.109-1.586s1.11,0.705,1.11,1.586c0,0.881-0.493,1.586-1.11,1.586
		S186.531,121.112,186.531,120.231L186.531,120.231z"/>
	
		<polygon fill-rule="evenodd" clip-rule="evenodd" fill="#E0E0E0" stroke="#000000" stroke-width="0" stroke-linecap="square" stroke-miterlimit="10" points="
		199.221,124.672 200.172,124.989 200.807,125.624 201.123,126.258 200.807,127.21 200.172,129.748 199.536,131.017 
		198.585,131.968 197.95,131.968 198.268,131.017 198.902,129.43 198.902,127.844 198.585,126.893 198.902,126.258 198.902,125.941 
		198.585,125.941 199.221,124.672 	"/>
	
		<polygon fill-rule="evenodd" clip-rule="evenodd" fill="#FFFFFF" stroke="#000000" stroke-width="0" stroke-linecap="square" stroke-miterlimit="10" points="
		163.373,132.603 163.056,130.7 162.421,129.113 160.201,127.21 158.932,126.893 157.98,126.893 157.028,127.527 156.394,128.479 
		156.394,130.065 156.711,131.651 157.98,135.458 159.249,139.582 159.566,141.803 159.249,144.023 158.297,148.464 
		158.297,153.223 159.566,157.03 160.518,158.616 162.104,159.567 163.373,160.202 164.007,159.885 164.007,159.567 163.69,158.616 
		161.152,154.492 160.518,152.271 160.835,151.002 161.152,149.099 161.47,145.292 161.47,139.899 160.835,137.044 160.201,135.141 
		158.297,131.968 157.663,131.017 157.663,130.382 157.98,130.065 158.932,130.065 160.201,130.065 161.152,130.382 
		162.104,131.334 162.104,132.603 163.373,132.603 	"/>
	
		<polygon fill-rule="evenodd" clip-rule="evenodd" stroke="#000000" stroke-width="0" stroke-linecap="square" stroke-miterlimit="10" points="
		177.647,183.677 177.965,180.188 179.233,177.333 182.724,171.306 183.358,169.719 183.676,167.498 183.992,163.691 
		183.992,163.375 183.676,164.009 182.724,165.277 181.772,166.864 179.233,170.988 177.331,175.429 176.696,178.919 
		176.379,181.773 176.696,183.677 176.696,184.312 177.647,183.677 	"/>
	
		<polygon fill-rule="evenodd" clip-rule="evenodd" stroke="#000000" stroke-width="0" stroke-linecap="square" stroke-miterlimit="10" points="
		237.604,187.484 236.653,186.215 236.019,184.629 235.383,181.457 235.383,177.967 234.749,176.064 234.114,175.112 
		234.114,174.16 234.749,173.843 235.383,174.16 236.019,174.794 237.287,176.381 237.922,177.967 237.922,180.188 237.604,183.043 
		237.287,185.581 237.287,186.85 237.922,187.167 237.604,187.484 	"/>
	
		<polygon fill-rule="evenodd" clip-rule="evenodd" stroke="#000000" stroke-width="0" stroke-linecap="square" stroke-miterlimit="10" points="
		182.09,175.747 181.772,177.333 182.09,177.967 182.724,177.967 183.992,178.284 186.849,178.919 188.117,178.919 189.068,177.967 
		190.337,177.333 191.923,177.333 194.778,178.284 195.413,178.919 196.682,179.553 199.221,181.457 203.026,183.043 
		207.467,183.677 211.909,183.36 216.351,182.409 219.839,181.457 222.695,181.457 226.501,182.409 228.404,183.36 229.355,183.995 
		229.991,184.312 230.942,183.995 232.528,182.409 232.528,181.773 232.211,181.139 231.577,180.822 230.942,179.871 
		229.991,179.553 229.038,179.871 227.453,180.188 226.184,179.871 225.232,179.236 223.646,177.967 219.839,174.794 
		216.033,171.306 214.447,170.036 213.494,169.402 211.909,169.084 207.467,170.354 205.247,170.354 203.661,169.719 
		201.758,168.768 200.172,168.45 198.585,169.084 194.778,172.257 192.876,173.526 192.24,174.16 191.605,174.478 190.654,174.794 
		189.386,174.794 186.531,176.064 185.578,176.381 184.627,176.381 183.992,175.747 183.358,175.429 182.09,175.747 	"/>
	
		<polygon fill-rule="evenodd" clip-rule="evenodd" stroke="#000000" stroke-width="0" stroke-linecap="square" stroke-miterlimit="10" points="
		212.543,167.181 213.494,167.498 215.08,168.45 218.253,171.306 221.425,174.478 222.695,175.429 223.646,176.064 223.964,175.747 
		223.329,175.112 221.425,172.892 218.253,170.036 216.033,167.815 214.447,166.864 213.494,166.547 211.592,167.181 
		212.543,167.181 	"/>
	
		<polygon fill-rule="evenodd" clip-rule="evenodd" fill="#FFFFFF" stroke="#000000" stroke-width="0" stroke-linecap="square" stroke-miterlimit="10" points="
		197.95,175.429 199.854,174.794 202.393,174.16 205.247,173.843 207.467,174.478 210.006,174.478 212.543,175.429 214.447,176.698 
		215.716,177.65 215.716,177.967 208.103,177.967 203.344,177.333 197.95,175.429 	"/>
	<polygon fill-rule="evenodd" clip-rule="evenodd" fill="#A1A1A1" points="184.944,104.369 184.31,103.735 184.31,102.465 
		185.578,99.611 187.8,96.438 190.654,93.266 191.605,91.68 191.605,89.459 191.289,86.604 191.289,83.432 191.605,79.625 
		193.191,75.501 196.048,71.06 198.268,68.839 201.123,66.301 207.149,61.225 205.564,61.86 204.295,62.177 201.123,61.86 
		198.585,62.177 197.316,62.495 195.096,63.446 192.876,65.033 189.068,68.205 187.482,69.156 185.896,69.791 183.992,71.06 
		182.406,73.28 180.504,76.77 181.772,90.728 180.504,92.314 179.233,93.583 177.331,96.756 176.379,100.563 176.379,102.465 
		176.696,105.003 184.944,104.369 	"/>
	<polygon fill-rule="evenodd" clip-rule="evenodd" fill="#A1A1A1" points="174.793,133.872 172.573,133.554 171.303,132.92 
		170.352,132.286 169.4,131.334 169.083,131.017 168.766,131.651 168.448,133.872 168.132,137.044 167.18,140.216 166.545,142.12 
		166.229,144.975 165.911,148.464 165.911,152.588 165.593,161.471 165.593,169.402 165.593,173.208 165.911,177.65 167.814,186.85 
		169.4,191.291 171.62,195.732 174.793,199.539 178.282,202.711 178.6,202.711 178.6,202.077 178.282,200.173 177.965,196.366 
		177.647,191.608 175.11,188.436 173.524,183.995 172.573,178.919 171.62,173.526 171.303,168.133 170.669,163.057 170.034,158.616 
		169.083,155.126 168.132,152.271 168.132,149.099 168.448,145.609 169.4,142.754 171.938,137.044 173.524,135.141 174.793,133.872 
			"/>
	<polygon fill-rule="evenodd" clip-rule="evenodd" fill="#A1A1A1" points="263.616,194.78 263.934,188.753 264.887,184.946 
		266.473,180.505 269.01,175.429 271.547,169.719 272.816,167.181 274.086,164.961 274.72,163.691 275.354,163.057 275.672,162.423 
		275.988,160.836 276.623,157.03 276.623,153.54 276.306,152.906 275.988,153.223 275.672,153.857 275.354,154.174 274.403,153.54 
		274.086,151.32 274.086,148.147 274.086,144.341 273.451,140.533 273.451,136.727 273.769,135.458 274.403,134.188 
		275.354,132.603 275.988,130.382 276.94,124.672 276.94,118.327 276.623,115.155 275.988,112.617 275.354,110.714 274.72,109.762 
		273.451,109.127 271.865,107.859 270.914,106.59 269.644,104.369 268.375,101.831 267.424,100.245 266.789,97.707 267.106,96.121 
		268.692,94.218 269.644,92.632 270.596,90.728 271.865,85.653 271.865,80.577 271.547,78.356 270.914,77.087 269.961,75.818 
		268.375,74.55 264.569,72.012 261.396,70.108 260.128,69.474 259.811,69.156 259.176,68.839 255.369,67.57 253.783,67.888 
		253.466,68.839 254.734,71.377 255.052,72.012 256.003,74.866 256.32,78.991 255.688,83.115 254.417,86.604 254.1,87.873 
		254.1,89.142 256.003,91.997 256.956,93.266 258.225,94.852 258.858,96.438 259.176,98.342 259.493,106.273 259.811,107.859 
		260.128,108.81 260.762,109.445 261.396,109.445 262.665,115.472 262.982,120.548 262.982,122.451 262.665,123.721 262.03,124.038 
		261.396,123.403 261.079,123.403 260.444,124.355 259.811,128.796 259.176,133.872 258.858,135.458 258.858,136.092 
		259.176,136.41 259.493,137.361 260.762,140.851 262.03,144.657 262.03,148.464 261.714,149.416 260.762,150.686 257.907,153.54 
		254.417,157.03 250.611,160.836 246.486,164.643 242.998,168.133 240.142,170.67 239.19,171.94 238.873,172.574 238.556,174.16 
		238.873,176.698 239.508,183.36 240.459,190.022 240.142,192.876 239.825,194.78 238.873,196.684 239.825,196.049 240.142,196.366 
		239.825,197.001 239.508,197.953 238.556,199.856 237.604,202.077 236.653,204.615 235.7,206.835 235.383,208.421 234.749,211.276 
		233.48,214.766 231.895,217.938 231.26,219.525 230.626,220.477 230.626,221.11 231.577,221.11 233.163,220.793 235.067,219.842 
		239.825,217.304 244.267,213.814 252.197,204.297 253.783,202.077 255.052,200.173 256.003,198.904 256.32,198.587 
		256.956,198.904 257.59,200.173 258.225,202.077 258.225,207.152 257.907,209.69 257.59,212.862 256.956,216.353 256.003,220.477 
		255.052,224.917 255.688,225.553 256.32,225.234 257.59,223.014 258.858,220.477 259.176,219.208 259.493,218.891 260.128,217.62 
		261.079,214.766 261.714,210.959 262.348,206.518 262.665,202.077 263.301,198.27 263.616,195.732 263.616,194.78 	"/>
	
		<polygon fill-rule="evenodd" clip-rule="evenodd" stroke="#000000" stroke-width="0" stroke-linecap="square" stroke-miterlimit="10" points="
		277.892,125.624 264.569,117.693 264.569,116.741 263.934,116.106 262.665,115.472 261.079,115.155 258.225,114.838 
		250.294,113.568 246.486,113.252 242.998,112.617 240.142,112.3 238.873,112.3 236.97,111.666 236.019,111.031 234.114,110.714 
		231.26,110.396 227.453,109.445 223.964,108.493 222.695,108.493 221.742,108.81 221.109,109.445 221.109,110.396 221.425,112.3 
		222.378,113.886 223.012,114.521 219.839,116.741 214.447,116.741 214.447,117.059 215.08,117.693 216.984,119.597 218.253,121.5 
		219.839,124.038 221.109,126.575 221.109,128.479 220.474,130.7 219.839,133.554 218.57,139.582 217.619,141.803 216.984,143.706 
		216.984,144.657 217.619,145.609 218.888,146.878 220.791,148.147 222.695,149.733 223.964,151.637 224.598,153.223 
		224.915,155.126 224.281,157.981 222.378,160.202 220.791,160.836 219.522,160.836 219.522,161.153 219.839,161.471 
		221.109,162.423 222.695,163.375 226.184,165.912 227.453,167.181 228.723,168.133 230.626,169.719 232.846,170.67 233.48,170.67 
		233.163,170.036 232.528,169.084 231.577,167.815 229.991,164.961 229.674,163.691 229.991,162.423 231.895,160.519 
		234.432,158.299 235.7,156.395 236.336,154.492 236.97,151.637 236.97,148.147 238.556,147.195 239.508,146.878 239.825,146.878 
		238.556,146.878 235.067,146.561 231.26,145.292 229.038,144.023 227.453,142.12 224.915,137.679 223.012,132.92 222.061,127.527 
		222.378,122.769 223.329,120.865 224.915,119.913 226.184,119.597 226.818,119.597 226.818,119.913 227.136,120.548 
		228.087,121.183 229.355,122.451 230.626,123.403 231.26,124.355 230.942,125.307 229.991,126.575 229.355,126.893 229.355,127.21 
		231.895,127.21 233.48,126.893 234.114,127.21 233.798,127.527 232.846,128.162 230.626,128.162 226.818,128.162 225.55,129.113 
		225.232,130.7 225.232,132.286 225.867,133.872 227.77,137.996 229.355,139.899 231.577,141.803 234.432,143.071 238.239,143.706 
		236.653,142.754 235.7,142.12 234.432,140.533 233.798,139.265 232.846,137.996 231.577,136.727 231.26,135.775 231.895,135.141 
		233.48,135.141 236.019,135.458 239.508,135.775 242.363,135.775 244.267,135.458 244.584,135.141 244.267,134.824 
		242.045,134.188 239.508,133.237 237.287,131.968 239.19,131.968 239.825,131.334 239.508,131.017 238.873,130.7 238.239,129.748 
		236.97,128.162 235.7,126.893 234.749,126.258 233.48,126.258 233.798,125.624 234.432,124.672 235.7,123.721 237.287,123.085 
		237.287,125.624 238.873,127.844 241.094,128.796 243.949,128.796 246.486,127.844 247.438,126.893 248.072,125.624 
		248.072,125.307 251.245,127.844 251.245,128.162 250.294,129.113 248.39,130.065 246.804,130.382 244.584,130.7 245.853,131.968 
		247.756,133.237 249.658,134.188 250.928,134.188 252.831,131.651 253.466,130.382 253.466,129.748 253.466,129.43 254.1,129.113 
		255.052,128.796 255.688,129.43 255.688,130.7 255.369,133.237 254.734,135.458 253.783,137.679 253.466,137.996 254.734,136.092 
		256.639,132.286 258.225,127.527 258.858,123.085 258.225,119.597 256.32,117.376 253.466,116.106 257.907,116.106 
		261.079,116.741 262.03,117.059 262.348,117.693 262.348,118.962 262.665,120.231 262.348,121.5 261.396,122.451 260.762,123.085 
		260.128,124.355 259.493,128.162 258.542,132.92 256.639,137.679 255.052,139.582 253.466,141.168 249.977,143.071 
		247.438,144.023 246.486,144.341 246.17,144.341 247.756,144.341 251.563,144.023 253.783,143.389 255.688,142.437 257.59,140.851 
		258.858,138.63 260.444,133.554 261.396,129.748 261.714,126.893 262.03,126.258 262.03,125.941 276.623,132.92 277.892,125.624 	
		"/>
	
		<polygon fill-rule="evenodd" clip-rule="evenodd" stroke="#000000" stroke-width="0" stroke-linecap="square" stroke-miterlimit="10" points="
		208.737,153.54 211.274,153.223 213.812,152.588 216.033,152.271 217.937,152.588 220.474,154.174 222.378,155.126 
		223.012,155.444 223.012,155.761 221.425,155.761 218.888,154.492 217.302,153.857 216.033,154.174 214.765,154.492 
		212.86,154.809 210.64,154.809 208.737,154.492 208.737,153.54 	"/>
	
		<polygon fill-rule="evenodd" clip-rule="evenodd" fill="#E0E0E0" stroke="#000000" stroke-width="0" stroke-linecap="square" stroke-miterlimit="10" points="
		234.749,122.769 236.336,122.134 241.728,122.134 244.9,122.451 245.218,122.134 244.584,121.5 242.045,120.548 240.776,120.231 
		236.653,120.231 235.067,121.5 234.749,122.769 	"/>
	
		<path fill-rule="evenodd" clip-rule="evenodd" fill="#FFFFFF" stroke="#000000" stroke-width="0" stroke-linecap="square" stroke-miterlimit="10" d="
		M239.825,125.307c0-0.705,0.493-1.269,1.11-1.269s1.109,0.564,1.109,1.269c0,0.705-0.492,1.269-1.109,1.269
		S239.825,126.011,239.825,125.307L239.825,125.307z"/>
	
		<polygon fill-rule="evenodd" clip-rule="evenodd" fill="#E0E0E0" stroke="#000000" stroke-width="0" stroke-linecap="square" stroke-miterlimit="10" points="
		243.949,114.204 236.336,113.886 230.309,113.886 227.77,114.204 225.867,114.521 224.281,115.155 223.329,116.106 
		220.791,120.231 220.474,121.5 221.109,122.134 221.425,121.817 221.742,120.865 222.378,119.597 223.329,119.279 224.598,118.962 
		226.501,117.693 228.723,116.424 231.577,115.472 243.949,114.204 	"/>
	<polygon fill-rule="evenodd" clip-rule="evenodd" fill="#FFFFFF" points="262.348,221.11 262.348,247.124 262.348,247.441 
		261.714,248.075 261.079,249.345 260.128,251.247 257.59,255.689 254.417,261.717 250.611,269.013 246.17,276.943 236.653,294.391 
		226.818,312.156 222.378,320.722 218.253,328.335 214.765,334.997 211.909,340.39 210.64,342.61 209.688,344.515 209.054,345.783 
		208.737,346.734 208.103,348.32 206.834,350.859 205.564,354.031 203.979,357.52 200.172,366.086 196.048,374.968 192.24,383.533 
		190.337,387.341 188.751,390.829 187.482,393.686 186.531,395.905 185.896,397.174 185.578,397.809 185.261,398.444 
		184.944,399.713 183.041,403.519 182.09,404.789 181.138,404.789 180.187,403.519 179.869,402.25 179.551,400.347 179.233,397.491 
		178.6,393.368 177.965,388.292 177.014,381.947 176.062,374.968 175.11,367.354 172.889,350.542 170.986,333.094 169.4,316.279 
		168.766,308.666 168.448,301.371 168.132,295.026 168.132,289.633 168.448,269.965 168.448,260.764 168.766,252.518 
		168.766,245.537 169.083,239.828 169.083,235.069 172.573,221.745 172.889,222.063 173.207,223.014 174.159,224.282 
		175.428,225.868 178.282,230.311 182.406,235.386 187.165,240.462 192.24,244.902 197.95,247.759 200.807,248.71 203.661,249.027 
		209.371,248.71 215.398,247.759 221.742,245.855 228.404,243.316 235.067,240.145 242.363,236.338 249.658,231.579 257.59,226.186 
		262.348,221.11 	"/>
	<polygon fill-rule="evenodd" clip-rule="evenodd" fill="#BFBFBF" points="215.716,256.323 216.033,259.178 215.716,262.034 
		214.765,268.379 214.447,274.406 214.765,276.943 216.033,279.481 216.984,281.384 216.984,282.02 216.033,281.702 
		214.447,280.433 212.86,277.896 211.274,274.724 210.322,269.965 210.006,264.254 215.716,256.323 	"/>
	<polygon fill-rule="evenodd" clip-rule="evenodd" fill="#BFBFBF" points="171.303,249.345 172.573,253.15 174.793,257.275 
		179.551,264.889 181.772,268.379 183.992,271.233 185.578,273.453 186.531,274.724 186.849,274.406 187.482,272.819 187.8,269.965 
		188.117,266.475 189.386,259.178 190.337,256.323 191.605,254.42 192.24,254.104 192.559,254.104 193.191,255.372 193.191,257.592 
		192.559,260.448 190.654,267.426 189.703,270.599 188.751,273.137 187.8,275.039 187.165,276.31 186.531,276.943 186.214,276.943 
		185.578,275.675 184.627,273.453 181.455,270.916 178.918,267.426 174.793,259.495 173.207,255.689 172.256,252.199 
		171.62,250.296 171.303,249.345 	"/>
	
		<polygon fill-rule="evenodd" clip-rule="evenodd" fill="#FFFFFF" stroke="#000000" stroke-width="0" stroke-linecap="square" stroke-miterlimit="10" points="
		35.847,296.93 35.847,297.563 36.165,299.467 36.481,302.322 37.116,305.812 38.702,312.791 39.971,315.646 41.557,317.866 
		43.144,319.77 45.046,321.99 48.536,327.066 52.026,332.459 53.295,334.68 54.247,336.267 55.833,337.218 58.37,337.218 
		61.542,336.584 65.349,335.313 68.839,334.045 71.693,332.776 73.915,331.825 74.549,331.508 69.156,343.563 68.839,343.563 
		68.521,344.197 66.301,345.783 63.446,348.003 56.467,353.079 53.295,355.3 51.074,356.887 49.805,357.52 49.488,357.204 
		48.854,356.568 46.633,353.714 43.778,349.589 40.605,344.831 37.75,339.756 34.896,334.997 32.992,330.873 32.358,328.335 
		35.847,296.93 	"/>
	
		<polygon fill-rule="evenodd" clip-rule="evenodd" fill="#E0E0E0" stroke="#000000" stroke-width="0" stroke-linecap="square" stroke-miterlimit="10" points="
		62.812,333.094 61.542,328.652 60.908,324.528 60.591,321.038 60.591,317.55 61.542,311.521 63.763,305.494 64.715,302.64 
		65.349,300.418 65.349,296.612 64.08,293.758 62.177,290.901 61.226,288.364 61.226,286.143 62.494,283.923 63.128,282.971 
		63.763,281.702 64.08,279.798 64.398,276.943 63.763,270.281 61.86,262.985 60.273,260.131 58.688,257.909 55.515,254.104 
		53.612,249.661 52.977,245.855 53.295,244.269 53.612,243.316 54.881,242.365 56.784,241.414 59.005,240.462 59.956,239.511 
		61.226,238.241 62.494,237.289 63.446,236.655 65.032,236.655 67.887,238.875 68.205,240.462 68.205,243.316 67.887,246.807 
		69.156,250.613 69.791,251.247 70.107,251.564 70.742,250.931 71.059,249.345 71.377,247.124 72.011,243 72.646,241.73 
		73.28,242.048 74.231,242.365 75.818,242.048 77.722,240.779 79.308,238.241 79.942,235.386 79.625,232.849 78.356,229.993 
		77.722,228.725 77.087,227.139 75.818,225.868 74.231,224.917 71.693,224.6 68.839,224.282 62.812,224.282 56.784,224.917 
		54.881,224.917 54.881,224.6 56.149,224.282 58.688,223.331 64.715,222.063 67.57,221.428 70.107,220.793 73.915,220.477 
		76.452,220.793 78.356,222.38 79.942,224.917 83.114,230.627 84.383,232.53 85.335,233.166 86.287,232.849 86.921,231.897 
		87.238,230.627 87.238,228.725 87.238,218.255 86.921,216.669 86.287,216.035 85.017,215.718 83.114,215.4 77.087,215.083 
		70.742,215.4 67.887,215.718 65.667,216.035 61.86,216.669 58.688,216.669 56.467,216.353 55.515,216.035 55.515,215.718 
		55.833,214.766 56.784,213.497 58.053,213.18 60.273,213.497 61.542,213.814 66.618,213.814 71.059,212.862 76.135,211.276 
		80.576,210.642 84.383,210.642 85.651,211.276 86.287,211.911 86.921,213.18 87.555,214.766 89.459,218.572 91.045,222.063 
		91.362,223.014 91.679,223.331 91.996,222.697 92.948,221.428 93.583,219.842 93.583,218.572 92.948,216.986 92.313,215.083 
		91.362,212.228 91.045,209.056 90.728,206.201 89.459,204.297 87.238,203.029 84.7,202.711 82.797,203.029 79.942,203.663 
		76.135,204.615 72.329,205.883 64.398,208.104 61.226,209.056 59.005,209.69 55.515,210.642 51.708,212.545 48.219,215.083 
		46.95,216.669 45.998,218.891 45.046,220.793 44.412,222.38 42.509,224.282 40.923,225.868 40.923,228.09 40.605,231.262 
		39.337,234.435 38.385,238.558 38.067,241.097 38.702,244.269 39.971,248.075 41.557,253.469 45.364,265.522 46.95,271.551 
		47.902,276.943 48.536,281.384 48.219,283.288 47.902,284.557 46.95,286.46 46.315,288.364 45.364,290.901 44.095,292.487 
		41.557,294.073 39.971,295.344 39.019,296.93 38.385,299.149 38.067,301.688 38.702,304.86 39.653,308.349 41.24,312.474 
		43.778,316.915 46.315,321.038 48.854,324.528 51.074,327.7 53.295,330.239 54.881,332.142 56.149,333.411 56.784,334.362 
		57.102,334.68 62.812,333.094 	"/>
	
		<polygon fill-rule="evenodd" clip-rule="evenodd" fill="#E0E0E0" stroke="#000000" stroke-width="0" stroke-linecap="square" stroke-miterlimit="10" points="
		82.797,237.289 82.797,239.192 82.163,241.414 79.942,247.124 77.404,252.518 76.135,254.42 75.184,255.372 73.597,256.006 
		72.329,255.689 71.377,255.055 71.059,254.42 71.693,254.104 73.28,254.104 74.866,253.469 75.501,252.833 76.135,251.564 
		76.452,250.296 75.818,249.027 75.818,247.441 76.77,246.488 78.038,245.22 79.625,243.634 80.576,241.73 81.845,237.924 
		82.48,234.752 82.48,233.8 82.797,233.483 82.797,237.289 	"/>
	
		<polygon fill-rule="evenodd" clip-rule="evenodd" fill="#E0E0E0" stroke="#000000" stroke-width="0" stroke-linecap="square" stroke-miterlimit="10" points="
		107.541,257.275 108.492,254.104 110.078,250.931 113.25,245.537 116.423,241.097 117.375,239.511 117.692,238.241 
		117.375,235.703 116.74,232.213 116.106,228.407 115.789,225.234 115.471,222.063 114.203,218.572 111.982,215.4 110.396,214.132 
		108.492,213.18 107.541,213.18 106.906,213.814 106.271,216.353 106.589,218.572 107.224,219.525 107.858,219.842 108.492,219.842 
		108.492,219.525 107.224,218.891 105.003,217.62 103.417,215.718 102.147,213.18 100.245,210.642 98.658,209.056 97.707,208.738 
		97.072,208.738 96.755,209.69 96.755,211.276 98.024,216.353 100.245,221.11 101.196,223.014 102.465,223.966 105.003,224.917 
		107.858,225.868 109.444,226.821 109.762,227.455 109.444,228.09 108.81,228.725 108.492,229.041 108.492,229.993 108.175,230.944 
		107.858,232.213 106.906,233.8 105.637,236.338 104.369,239.192 103.734,241.73 103.417,246.488 104.369,250.613 106.271,254.42 
		107.541,257.275 	"/>
	
		<polygon fill-rule="evenodd" clip-rule="evenodd" fill="#E0E0E0" stroke="#000000" stroke-width="0" stroke-linecap="square" stroke-miterlimit="10" points="
		60.908,206.835 61.226,204.932 61.226,196.684 60.908,190.339 61.226,184.629 62.494,179.236 64.715,174.16 66.301,169.402 
		66.935,167.815 67.252,166.229 67.57,164.643 68.205,162.74 70.425,157.664 73.28,152.588 74.231,150.686 75.184,149.099 
		76.77,146.878 78.356,145.609 79.308,145.927 79.942,146.878 80.259,148.464 80.576,151.32 80.576,154.492 79.942,156.712 
		78.99,158.933 77.722,160.519 75.184,162.423 73.915,163.691 73.915,164.326 74.231,165.277 74.866,166.547 75.501,168.133 
		76.452,172.257 76.77,174.794 76.135,177.65 74.866,183.677 74.549,188.753 74.866,192.876 75.818,195.732 76.452,197.953 
		76.77,199.856 76.452,200.808 76.452,201.125 60.908,206.835 	"/>
	<path fill-rule="evenodd" clip-rule="evenodd" fill="#808080" d="M198.268,248.075c-1.131,0.383-2.537,3.131-2.537,3.131
		s-2.465,1.604-3.172,2.897c-0.708,1.293,0.317,4.123,0.317,4.123l1.902,5.076l0.952,2.22l0.317,1.586v1.271l-0.317,1.269
		l-0.952,0.951l-0.951,1.269l-1.269,1.586l-1.27,1.904l-1.269,2.221l-0.952,2.537l-1.586,6.345l-0.634,7.298l-0.317,7.295v2.222
		l-0.636,2.537l-1.586,6.027l-2.22,6.979l-2.221,7.613l-2.538,7.613l-2.221,6.979l-1.269,6.027l-0.635,2.537v1.904l0.317,3.807
		l0.317,4.124l0.951,8.565l0.317,3.806l0.635,3.173l0.316,2.221v0.636v0.315l0.317,0.953l0.317,3.489l0.635,4.759l0.951,5.71
		l0.636,5.709l0.951,5.076l0.635,3.808l0.316,1.269l0.317,0.634l0.317-0.316l1.269-1.903l1.269-2.855l1.903-3.489l4.441-9.518
		l10.152-22.841l2.22-5.393l2.221-4.758l1.586-4.441l1.27-3.489l0.952-2.539l0.316-1.269l-0.316-2.22v-10.152l0.316-8.882
		l0.317-9.834l0.317-9.518v-8.883l0.317-3.488v-3.173l-0.317-2.539v-1.586l-1.269-5.076l-1.586-4.123l-1.27-3.49l-0.635-1.269
		l-0.317-0.951l0.317-1.903l1.586-1.903l1.904-1.587l2.22-0.951l2.221-0.635l1.904-1.269l1.586-2.221l0.316-1.27v-1.903
		l-1.269-3.806l-1.904-3.173l-1.902-1.903l-0.635-0.635c0,0-4.47-0.773-6.991-0.634S198.268,248.075,198.268,248.075
		S199.398,247.691,198.268,248.075z"/>
	<g>
		<path d="M132.916,435.511c-0.095-2.069-0.214-4.567-0.19-6.732h-0.071c-0.523,1.951-1.189,4.116-1.903,6.138l-2.332,6.946h-2.26
			l-2.141-6.851c-0.619-2.046-1.189-4.234-1.618-6.233h-0.047c-0.071,2.094-0.167,4.64-0.286,6.828l-0.357,6.446h-2.735l1.07-16.033
			h3.854l2.093,6.446c0.571,1.88,1.07,3.782,1.475,5.566h0.072c0.428-1.736,0.975-3.711,1.594-5.59l2.212-6.423h3.806l0.928,16.033
			h-2.855L132.916,435.511z"/>
		<path d="M145.547,442.053l-0.19-1.284h-0.072c-0.713,0.903-1.927,1.546-3.425,1.546c-2.331,0-3.64-1.689-3.64-3.449
			c0-2.926,2.593-4.401,6.875-4.377v-0.19c0-0.762-0.31-2.022-2.355-2.022c-1.142,0-2.332,0.357-3.117,0.856l-0.571-1.903
			c0.856-0.522,2.355-1.022,4.187-1.022c3.711,0,4.781,2.355,4.781,4.877v4.187c0,1.047,0.048,2.069,0.167,2.783H145.547z
			 M145.167,436.391c-2.07-0.047-4.044,0.405-4.044,2.165c0,1.142,0.737,1.665,1.665,1.665c1.166,0,2.022-0.761,2.284-1.594
			c0.071-0.214,0.095-0.452,0.095-0.642V436.391z"/>
		<path d="M151.114,425.163h2.95v16.89h-2.95V425.163z"/>
		<path d="M165.744,441.696c-0.619,0.285-1.832,0.595-3.283,0.595c-3.616,0-5.971-2.308-5.971-5.9c0-3.473,2.379-6.185,6.447-6.185
			c1.07,0,2.165,0.238,2.831,0.547l-0.523,2.188c-0.476-0.214-1.166-0.451-2.212-0.451c-2.236,0-3.568,1.641-3.544,3.758
			c0,2.379,1.546,3.735,3.544,3.735c1.023,0,1.736-0.214,2.308-0.452L165.744,441.696z"/>
		<path d="M178.709,436.153c0,4.258-2.998,6.161-5.947,6.161c-3.283,0-5.805-2.26-5.805-5.971c0-3.807,2.498-6.138,5.995-6.138
			C176.401,430.206,178.709,432.633,178.709,436.153z M169.979,436.272c0,2.235,1.094,3.925,2.878,3.925
			c1.665,0,2.831-1.642,2.831-3.973c0-1.808-0.809-3.878-2.807-3.878C170.811,432.347,169.979,434.346,169.979,436.272z"/>
		<path d="M181.111,425.163h2.949v16.89h-2.949V425.163z"/>
		<path d="M187.225,433.917c0-1.332-0.024-2.45-0.096-3.449h2.521l0.119,1.713h0.071c0.571-0.904,1.618-1.975,3.568-1.975
			c1.522,0,2.712,0.856,3.212,2.141h0.047c0.404-0.642,0.881-1.118,1.428-1.451c0.643-0.451,1.38-0.689,2.331-0.689
			c1.927,0,3.878,1.309,3.878,5.02v6.827h-2.854v-6.399c0-1.927-0.666-3.068-2.07-3.068c-0.999,0-1.736,0.714-2.046,1.546
			c-0.071,0.286-0.143,0.643-0.143,0.976v6.946h-2.854v-6.708c0-1.618-0.643-2.76-1.998-2.76c-1.095,0-1.832,0.856-2.094,1.665
			c-0.118,0.285-0.166,0.618-0.166,0.951v6.852h-2.854V433.917z"/>
		<path d="M221.027,442.053l-1.736-3.188c-0.689-1.237-1.142-2.094-1.594-3.021h-0.071c-0.381,0.928-0.809,1.784-1.451,3.021
			l-1.594,3.188h-3.354l4.758-8.112l-4.567-7.921h3.354l1.736,3.307c0.523,0.999,0.904,1.784,1.332,2.688h0.048
			c0.428-0.999,0.761-1.713,1.261-2.688l1.713-3.307h3.354l-4.686,7.826l4.876,8.207H221.027z"/>
	</g>
	
		<path fill="none" stroke="#3D3D3D" stroke-width="0.9912" stroke-linecap="round" stroke-linejoin="round" stroke-miterlimit="10" d="
		M204.627,269.273c0.279,2.781-0.661-4.846-8.15-1.612"/>
	<ellipse fill="#A3A3A3" cx="220.089" cy="275.917" rx="1.5" ry="2.667"/>
	<ellipse fill="#727272" cx="185.295" cy="268.908" rx="1.198" ry="2.13"/>
	
		<line fill="#727272" stroke="#3D3D3D" stroke-width="2" stroke-miterlimit="10" x1="55.833" y1="337.218" x2="49.805" y2="357.52"/>
</g>
<ellipse transform="matrix(0.974 0.2266 -0.2266 0.974 78.8295 -2.2589)" fill="#727272" cx="49.256" cy="342.293" rx="2.5" ry="5.076"/>
<line fill="#727272" stroke="#3D3D3D" stroke-width="2" stroke-miterlimit="10" x1="58.756" y1="340.75" x2="57.333" y2="346.5"/>
</svg>
