<?xml version="1.0" encoding="utf-8"?>
<!-- Generator: Adobe Illustrator 22.0.0, SVG Export Plug-In . SVG Version: 6.00 Build 0)  -->
<svg version="1.1" id="svg-chen" xmlns="http://www.w3.org/2000/svg" xmlns:xlink="http://www.w3.org/1999/xlink" x="0px" y="0px"
	 viewBox="0 0 2058 2048" style="enable-background:new 0 0 2058 2048;" xml:space="preserve">
	<style type="text/css">
		.st0{fill:none;}
	</style>
	<path class="pen line-chen-1" d="M274.5,80.9c2.3,350.4,4.2,700.7,6,1051.1c0.3,59.2,0.6,118.4,0.9,177.5
		c1.1,210.5,2.2,421.1,3.3,631.6"/>
	<path class="pen line-chen-2" d="M193.9,250.4c143.8-3.4,287.5-6.9,431.3-10.3c9.4-0.2,19.2-0.4,27.7,3.7
		c26.3,12.6,20.9,51.2,10.9,78.6c-60.9,167.5-138.5,329-231.1,481.2c19.4,44.5,65.4,70.6,95.2,108.9c10.6,13.7,19.1,29,27.5,44.2
		c54.6,98.7,108.2,202.4,116,314.9c4.2,60.5-8.2,127.5-55,166.1c-22.8,18.9-51.4,29-79.6,38c-45.4,14.6-95.1,27.2-140,11.1"/>
	<path class="pen line-chen-3" d="M673.7,412.4c139.8-0.6,279.7-1.2,419.5-1.8c42.7-0.2,85.4-0.4,128.2-0.5
		c237.5-1,475-2,712.5-3"/>
	<path class="pen line-chen-4" d="M857.1,567c6.9,247,7.4,494.1,1.5,741.1"/>
	<path class="pen line-chen-5" d="M765,676.9c335.7-6.5,671.6-8.8,1007.4-6.8c-2.6,213.4-5.2,426.7-7.8,640.1"/>
	<path class="pen line-chen-6" d="M768.8,951.8c41.7,5.2,83.5,9.3,125.5,10.4c36.2,1,72.4-0.2,108.5-1.2
		c243.8-7,487.9-7.8,731.7-2.3"/>
	<path class="pen line-chen-7" d="M772.9,1279.1c344.9-24.2,691.2-17.4,1036.9-10.6"/>
	<path class="pen line-chen-8" d="M1285.9,9.3c9.1,140,15.5,280.3,17.1,420.6c0.9,80.7,0.2,161.4-0.4,242.1
		c-3.6,419.9-7.1,839.9-10.7,1259.8"/>
	<path class="pen line-chen-9" d="M1369.5,1198.6c-98.4,85.2-191.7,176.2-279.3,272.4c-27.8,30.5-55.1,61.6-86.1,88.9
		c-18.4,16.2-37.9,30.9-57.5,45.6c-112.7,84.6-229.3,169.2-364.1,210.2"/>
	<path class="pen line-chen-10" d="M1230.2,1201.9c89.8,94.1,182.7,185.4,278.3,273.6c43.2,39.8,86.9,79,132.9,115.4
		c63.1,50.1,130.2,94.9,197.2,139.6c40.3,26.9,81.6,54.3,128.4,66.8"/>

	<defs>
		<clipPath id="chen-1">
			<path d="M241,199c-9.3,0-14,4.7-14,14l4,418v885l-4,414c0,8,4.7,12,14,12h70c9.3,0,14-4,14-12l-4-418V287.1
			l-2.5-85.9L241,199z"/>
		</clipPath>
		<clipPath id="chen-2">
			<path d="M708,1268c0-64.7-12-126-36-184c-31.3-76-92.3-170.3-183-283c63.3-118,131.7-266.7,205-446
			c15.3-36,27-57.3,35-64c9.3-7.3,14-14.7,14-22c0-11.3-10.3-27-31-47c-17.3-18-31.7-27-43-27c-3.3,0-9.3,1.3-18,4c-8,2.7-24.3,4-49,4
			H382l-63.5-1.8l2.5,85.9V287h301c-62,172.7-137.7,346-227,520c80,106,136.7,191,170,255c36.7,71.3,55,139.3,55,204
			c0,57.3-13.7,100-41,128c-32,33.3-86,50-162,50c-13.3,0-28.3-0.7-45-2c12.7,12.7,22.3,31.3,29,56c5.3,22,14,33,26,33
			c2,0,6.3-0.3,13-1C618.7,1523.3,708,1436,708,1268z"/>
		</clipPath>
		<clipPath id="chen-3">
			<path d="M1341,452h299l287,4c9.3,0,14-4.7,14-14v-66c0-8-4.7-12-14-12l-287,4h-299v-0.6h-90v0.6h-213l-284-4
			c-10,0-15,4-15,12v66c0,9.3,5,14,15,14l284-4h213v1h90V452z"/>
		</clipPath>
		<clipPath id="chen-4">
			<path d="M897,1229V997h0.5v-74H897V710h0.6l-1.9-80.9L821,628c-8,0-12,4.7-12,14l4,193v269l-4,193c0,9.3,4,14,12,14
			l75.8-1.1l1.9-80.9H897z"/>
		</clipPath>
		<clipPath id="chen-5">
			<path d="M1806,835l4-193c0-9.3-4.7-14-14-14l-269,4h-186v-0.7h-90v0.7h-162l-193.3-2.9l1.9,80.9H1251v0.8l90-0.2V710
			h377v213h-0.8v74h0.8v232h-0.7l3.7,80.9l74.9,1.1c9.3,0,14-4.7,14-14l-4-193L1806,835L1806,835z"/>
		</clipPath>
		<clipPath id="chen-6">
			<path d="M1717.3,997v-74H1341v-1.2h-90v1.2H897.5v74H1251v0.8h90V997H1717.3z"/>
		</clipPath>
		<clipPath id="chen-7">
			<path d="M1388,1307h139l194.1,2.9l-3.7-80.9H1341v-1.7l-90,0.4v1.2H898.6l-1.9,80.9l192.2-2.9h111
			c-0.2,0.3-0.4,0.5-0.6,0.8h189.3C1388.4,1307.5,1388.2,1307.3,1388,1307z"/>
		</clipPath>
		<clipPath id="chen-8">
			<path d="M1341,1229V997h0.7v-74h-0.7V710h0.5l0.2-78h-0.7V452h0.5v-84h-0.5v-70c0-64,5-110.3,15-139
			c6.7-16.7,10-27.7,10-33c0-8.7-8.3-14-25-16c-20-4.7-54.7-8-104-10c9.3,42,14,109.3,14,202v66h-0.5v84h0.5v180h-0.7l0.2,78h0.5v213
			h-0.7l-0.3,74h1v232h-0.3l3.5,125.9c0.2-0.3,0.5-0.6,0.7-0.9l-10,569c0,10,4.7,15,14,15h74c9.3,0,14-5,14-15l-10-579
			c0.2,0.2,0.3,0.5,0.5,0.7l4.4-115.7H1341z"/>
		</clipPath>
		<clipPath id="chen-9">
			<path d="M1199.4,1307.8C1042.1,1510.1,825.3,1670.2,549,1788c14.7,10.7,28.3,25.7,41,45c10,16.7,18,25,24,25
			c4,0,12.3-2.7,25-8c239.7-109.2,444.8-274.3,615.4-495.2l0.8-47.1L1199.4,1307.8L1199.4,1307.8z"/>
		</clipPath>
		<clipPath id="chen-10">
			<path d="M1656,1569c-94.4-72.5-183.5-159.6-267.4-261.2h-51.8l0.5,36.7c136.6,193.8,323.5,357.3,560.7,490.6
			c14,8,23,12,27,12c6.7,0,14-7.3,22-22c12.7-21.3,28.3-38.3,47-51C1863.3,1710,1750.7,1641.7,1656,1569z"/>
		</clipPath>
	</defs>
</svg>
