<?xml version="1.0" encoding="utf-8"?>
<!-- Generator: Adobe Illustrator 22.0.0, SVG Export Plug-In . SVG Version: 6.00 Build 0)  -->
<svg version="1.1" id="svg-feng" xmlns="http://www.w3.org/2000/svg" xmlns:xlink="http://www.w3.org/1999/xlink" x="0px" y="0px"
	 viewBox="0 0 2058 2048" style="enable-background:new 0 0 2058 2048;" xml:space="preserve">
	<style type="text/css">
		.st0{fill:none;stroke:#000000;stroke-miterlimit:10;}
	</style>
	<path class="pen line-feng-1" d="M379.5,68.3c19.1,312.3,21.4,625.6,7,938.1c-7,153-18.2,306.8-55.9,455.3
		s-103.1,292.5-207.5,404.6"/>
	<path class="pen line-feng-2" d="M289.8,261.2c442.2,1.7,884.4,3.4,1326.6,5.1c28.1,256.3,6.3,515.1,10.6,772.9
		s37.1,523,163.6,747.7c8.6,15.3,18.2,31,33.1,40.4c28.8,18.1,69.1,5.7,92-19.4c22.9-25.2,32.3-59.6,38.9-93
		c14.5-73.6,19.1-148.7,23.7-223.6"/>
	<path class="pen line-feng-3" d="M1496,386.2c-68.5,54.4-146.4,97-229.2,125.3c-55.2,18.9-112.4,31.4-169.7,42.5
		c-173.3,33.6-349,54.8-525.3,63.2"/>
	<path class="pen line-feng-4" d="M642.9,766.3c-5.1,186.7-3.2,373.5,5.8,560"/>
	<path class="pen line-feng-5" d="M557,904.8c263.7-17.4,528.5-18.4,792.3-3c3.4,0.2,7.2,0.6,9.6,3c2.1,2.1,2.6,5.2,3,8.1
		c19.6,138.7,21.4,279.9,5.4,419"/>
	<path class="pen line-feng-6" d="M553,1296.1c105.6-5.8,211.3-7.4,317-9.1c39-0.6,77.9-1.2,116.9-1.8
		c138.7-2.2,277.4-4.4,416.1-1.3"/>
	<path class="pen line-feng-7" d="M998.1,438c9,428,11.9,856.1,8.6,1284.1"/>
	<path class="pen line-feng-8" d="M341,1798.8c374.7-59.5,748.1-127.8,1119.7-204.7"/>
	<path class="pen line-feng-9" d="M1260.7,1384.2c121.2,117.7,210.3,268.3,255.1,431.2"/>

	<defs>
		<clipPath id="feng-1">
			<path d="M358,213c-9.3,0-14,4.7-14,14l4,424c0,288.7-10.3,513.3-31,674c-28.7,212.7-107.7,388-237,526
			c23.3,9.3,43,23,59,41c10.7,12,18,18,22,18c2.7,0,9-6,19-18c119.3-155.3,194.3-336.7,225-544c23.3-158.7,35-390.3,35-695V301h1.5
			l-3.9-86.9L358,213z"/>
		</clipPath>
		<clipPath id="feng-2">
			<path d="M1999,1503c-21.3-12.7-39-29-53-49c-12.7,226.7-40.7,340-84,340c-55.3,0-106.7-121.7-154-365
			c-28.7-146-43-435.3-43-868v-49l4-285c0-9.3-4.7-14-14-14l-293,4H649l-211.4-2.9l3.9,86.9H1573v250c2,449.3,19.7,755.7,53,919
			c29.3,140,60.3,243.3,93,310c38,78.7,84.3,118,139,118c44.7,0,79-21.3,103-64c27.3-50.7,47-144,59-280c0.7-12,1-19,1-21
			C2021,1522.3,2013.7,1512.3,1999,1503z"/>
		</clipPath>
		<clipPath id="feng-3">
			<path d="M1047,604c104.7-18,196-37.7,274-59c44.7-12,73.3-18,86-18c19.3,0,29-6.3,29-19c0-6.7-6.3-16.3-19-29
			c-16-16-38.3-33-67-51c-26,19.3-69.7,38.7-131,58c-184.7,53.3-409.3,88-674,104c16.7,14.7,28,31,34,49c8.7,18.7,18.3,28,29,28
			c3.3,0,9.7-0.7,19-2c112.7-11.3,224-26.7,334-46v0.8l86-15.1V604z"/>
		</clipPath>
		<clipPath id="feng-4">
			<path d="M688,1255V930h0.9l-3.8-76.8l-69-1.2c-9.3,0-14,4.7-14,14l4,154v145l-4,154c0,8,4.7,12,14,12l70.2-1.2l3.6-74.8
			H688z"/>
		</clipPath>
		<clipPath id="feng-5">
			<path d="M1047,930h274v325h-1.3l4.7,74.9l66.6,1.1c10.7,0,16-4,16-12l-4-154v-145l4-154c0-9.3-5.3-14-16-14l-236,4h-108
			v-1.1h-86v1.1H854l-169-2.8l3.8,76.8H961v0.9l86-0.3V930z"/>
		</clipPath>
		<clipPath id="feng-6">
			<path d="M1047,1327h108l169.4,2.9l-4.7-74.9H1047v-0.5h-86v0.5H689.8l-3.6,74.8L854,1327h107v0.5h86V1327z"/>
		</clipPath>
		<clipPath id="feng-7">
			<path d="M1047,1327h0.5v-72h-0.5V930h0.5l0.5-74h-1V604.7l-86,15.1V856h-0.5l-0.4,74h0.9v325h-0.5v72h0.5v322.4
			l86-13.8V1327z"/>
		</clipPath>
		<clipPath id="feng-8">
			<path d="M1047,1636v-0.4l-86,13.8v0.6c-94.7,15.3-188.3,29-281,41c-80.7,10-157.3,15-230,15c6.7,29.3,17,60.7,31,94
			c6.7,14.7,14.3,22,23,22c6.7,0,13.3-3.3,20-10c8.7-8.7,37.3-16.3,86-23c261.2-36,524.6-82.9,790.5-140.9l-39.2-69
			C1230.3,1605.1,1125.5,1624,1047,1636z"/>
		</clipPath>
		<clipPath id="feng-9">
			<path d="M1554,1786c-48.7-124.7-110-237.3-184-338c-4-6.7-8-10-12-10c-3.3,0-9,1.7-17,5l-24,13c-14.7,6.7-22,11.7-22,15
			c0,2,1.3,5,4,9c31.3,47.3,52.3,80.3,63,99c-0.3,0.1-0.5,0.1-0.8,0.1l39.2,69c0.2,0,0.4-0.1,0.5-0.1c34,68,59.3,126,76,174
			c2,8.7,4.7,13,8,13s11.3-3.3,24-10l29-15c12-6.7,18-12,18-16C1556,1792,1555.3,1789.3,1554,1786z"/>
		</clipPath>
	</defs>
</svg>
