<?xml version="1.0" encoding="utf-8"?>
<!-- Generator: Adobe Illustrator 22.0.0, SVG Export Plug-In . SVG Version: 6.00 Build 0)  -->
<svg version="1.1" id="svg-ping" xmlns="http://www.w3.org/2000/svg" xmlns:xlink="http://www.w3.org/1999/xlink" x="0px" y="0px"
	 viewBox="0 0 2058 2048" style="enable-background:new 0 0 2058 2048;" xml:space="preserve">
	<style type="text/css">
		.st0{fill:none;stroke:#000000;stroke-miterlimit:10;}
	</style>
	<path class="pen line-ping-1" d="M127,286.9c570-1.5,1140-3.1,1710-4.6"/>
	<path class="pen line-ping-2" d="M346.2,397.7c145.6,155.1,234.1,354.6,306.6,554.6"/>
	<path class="pen line-ping-3" d="M1681.4,373.7c-71.8,212.7-180.5,412.9-319.8,589"/>
	<path class="pen line-ping-4" d="M7,1153.5c637.3-4,1274.7-4.9,1912-2.7"/>
	<path class="pen line-ping-5" d="M1017.1,87c15.8,387.9,14.5,776.2,13.2,1164.4c-0.7,225.9-1.5,451.8-2.2,677.7"/>

	<defs>
		<clipPath id="ping-1">
			<path d="M1074,329h465l285,4c9.3,0,14-4.7,14-14v-70c0-9.3-4.7-14-14-14l-285,4H540l-284-4c-10,0-15,4.7-15,14v70
			c0,9.3,5,14,15,14l284-4h435v0.5h99V329z"/>
		</clipPath>
		<clipPath id="ping-2">
			<path d="M622,967c4.7,0,12-2.3,22-7l43-18c12.7-5.3,19-10.3,19-15c0-2-0.7-4.7-2-8c-61.3-163.3-142-315.3-242-456
			c-3.3-6-6.3-9-9-9c-3.3,0-8.3,2.3-15,7l-35,18c-15.3,7.3-23,13-23,17c0,2,1.3,5.3,4,10c93.3,140,167.7,288,223,444
			C611,961.3,616,967,622,967z"/>
		</clipPath>
		<clipPath id="ping-3">
			<path d="M1586,436c-6,38-14.7,70.7-26,98c-60.7,142.7-144.7,280.7-252,414c18.7,3.3,37.7,11.7,57,25
			c13.3,8.7,22,13,26,13c4.7,0,12.7-7,24-21c80-104,157.7-235.3,233-394c11.3-25.3,22.3-42.3,33-51c12.7-8,19-15.7,19-23
			c0-8.7-6.3-16-19-22C1661.7,464.3,1630,451.3,1586,436z"/>
		</clipPath>
		<clipPath id="ping-4">
			<path d="M1910,1096l-272,4h-564v-0.5l-99,0.2v0.2H426l-271-4c-9.3,0-14,4.7-14,14v74c0,9.3,4.7,14,14,14l271-4h549v0.5
			h99v-0.5h564l272,4c9.3,0,14-4.7,14-14v-74C1924,1100.7,1919.3,1096,1910,1096z"/>
		</clipPath>
		<clipPath id="ping-5">
			<path d="M1074,1100V329.5h-99V1100h-0.3v94h0.3v510l-4,219c0,9.3,4.7,14,14,14h79c10,0,15-4.7,15-14l-5-219v-510h0.3
			l0.3-94H1074z"/>
		</clipPath>
	</defs>
</svg>
